# 3ds Max Wavefront OBJ Exporter v0.97b - (c)2007 guruware
# File Created: 09.05.2019 22:14:55

mtllib AmmoUgly.mtl

#
# object AmmoUgly
#

v  22.4834 0.0006 -68.5550
v  22.4834 0.0006 68.5564
v  -22.4834 0.0006 68.5564
v  -22.4834 0.0006 -68.5550
v  22.4834 96.2271 -68.5550
v  22.4834 96.2271 68.5564
v  22.4834 89.7834 68.5564
v  22.4834 92.5379 -74.5164
v  22.4834 96.2271 -74.5164
v  22.4834 89.7834 -68.5550
v  -22.4834 96.2271 -74.5164
v  -22.4834 92.5379 -74.5164
v  -22.4834 89.7834 -68.5550
v  -22.4834 96.2271 -68.5550
v  -22.4834 96.2271 68.5564
v  -22.4834 89.7834 68.5564
# 16 vertices

vn 0.0000 -1.0000 -0.0000
vn 1.0000 0.0000 -0.0000
vn -1.0000 0.0000 -0.0000
vn 0.0000 -0.9078 -0.4195
vn 0.0000 0.0000 -1.0000
vn 0.0000 1.0000 -0.0000
vn 0.0000 0.0000 1.0000
# 7 vertex normals

vt 0.8115 0.5671 0.5671
vt 0.8115 0.0020 0.0020
vt 0.9971 0.0020 0.0020
vt 0.9971 0.5671 0.5671
vt 0.5732 0.4033 0.4033
vt 0.0079 0.4033 0.4033
vt 0.0079 0.3770 0.3770
vt 0.5977 0.3882 0.3882
vt 0.5977 0.4033 0.4033
vt 0.5732 0.3770 0.3770
vt 0.5732 0.0063 0.0063
vt 0.0079 0.0063 0.0063
vt 0.5977 0.5886 0.5886
vt 0.5977 0.6040 0.6040
vt 0.5732 0.6152 0.6152
vt 0.5732 0.5886 0.5886
vt 0.0079 0.5886 0.5886
vt 0.0079 0.6152 0.6152
vt 0.0079 0.9854 0.9854
vt 0.5732 0.9854 0.9854
vt 0.6143 0.7839 0.7839
vt 0.7998 0.7839 0.7839
vt 0.7998 0.8086 0.8086
vt 0.6143 0.8086 0.8086
vt 0.7998 0.8237 0.8237
vt 0.6143 0.8237 0.8237
vt 0.7998 0.4141 0.4141
vt 0.6143 0.4141 0.4141
vt 0.8003 0.4053 0.4053
vt 0.6147 0.4053 0.4053
vt 0.6147 0.3784 0.3784
vt 0.8003 0.3784 0.3784
vt 0.8003 0.0083 0.0083
vt 0.6147 0.0083 0.0083
# 34 texture coords

o AmmoUgly
g AmmoUgly
usemtl AmmoUgly_MAT
s 1
f 1/1/1 2/2/1 3/3/1 
f 3/3/1 4/4/1 1/1/1 
f 5/5/2 6/6/2 7/7/2 
f 8/8/2 9/9/2 5/5/2 
f 5/5/2 10/10/2 8/8/2 
f 7/7/2 10/10/2 5/5/2 
f 1/11/2 10/10/2 7/7/2 
f 7/7/2 2/12/2 1/11/2 
f 11/13/3 12/14/3 13/15/3 
f 13/15/3 14/16/3 11/13/3 
f 15/17/3 14/16/3 13/15/3 
f 13/15/3 16/18/3 15/17/3 
f 3/19/3 16/18/3 13/15/3 
f 13/15/3 4/20/3 3/19/3 
f 10/21/4 13/22/4 12/23/4 
f 12/23/4 8/24/4 10/21/4 
f 8/24/5 12/23/5 11/25/5 
f 11/25/5 9/26/5 8/24/5 
f 4/27/5 13/22/5 10/21/5 
f 10/21/5 1/28/5 4/27/5 
f 15/17/6 6/6/6 5/5/6 
f 5/5/6 14/16/6 15/17/6 
f 14/16/6 5/5/6 9/9/6 
f 9/9/6 11/13/6 14/16/6 
f 6/29/7 15/30/7 16/31/7 
f 16/31/7 7/32/7 6/29/7 
f 2/33/7 7/32/7 16/31/7 
f 16/31/7 3/34/7 2/33/7 
# 0 polygons - 28 triangles

